<svg width="17" height="17" viewBox="0 0 17 17" fill="none" xmlns="http://www.w3.org/2000/svg">
<path fill-rule="evenodd" clip-rule="evenodd" d="M4.60433 11.4749H11.3335C12.6691 11.4749 13.337 11.4749 13.7519 11.06C14.1668 10.6451 14.1668 9.97725 14.1668 8.6416V5.09993C14.1668 3.76429 14.1668 3.09647 13.7519 2.68153C13.337 2.2666 12.6691 2.2666 11.3335 2.2666H5.66683C4.33118 2.2666 3.66336 2.2666 3.24843 2.68153C2.8335 3.09647 2.8335 3.76429 2.8335 5.09993V13.2458C2.8335 12.2678 3.62633 11.4749 4.60433 11.4749ZM6.37516 3.80827C5.27059 3.80827 4.37516 4.7037 4.37516 5.80827C4.37516 6.91284 5.27059 7.80827 6.37516 7.80827H10.6252C11.7297 7.80827 12.6252 6.91284 12.6252 5.80827C12.6252 4.7037 11.7297 3.80827 10.6252 3.80827L6.37516 3.80827Z" fill="#9D9FA2"/>
<path d="M13.7519 11.06L13.0448 10.3529L13.0448 10.3529L13.7519 11.06ZM13.7519 2.68153L13.0448 3.38864L13.0448 3.38864L13.7519 2.68153ZM4.37516 5.80827H5.37516H4.37516ZM6.37516 3.80827V2.80827V3.80827ZM6.37516 7.80827V8.80827V7.80827ZM10.6252 7.80827V6.80827V7.80827ZM10.6252 3.80827L10.6252 4.80827L10.6252 3.80827ZM11.3335 10.4749H4.60433V12.4749H11.3335V10.4749ZM13.0448 10.3529C13.0417 10.356 13.0357 10.363 13.0063 10.3751C12.9689 10.3905 12.8948 10.4132 12.7547 10.432C12.4511 10.4728 12.0296 10.4749 11.3335 10.4749V12.4749C11.9731 12.4749 12.5533 12.4771 13.0212 12.4142C13.5179 12.3474 14.0348 12.1913 14.459 11.7671L13.0448 10.3529ZM13.1668 8.6416C13.1668 9.33769 13.1647 9.75917 13.1239 10.0628C13.105 10.2029 13.0824 10.277 13.067 10.3144C13.0549 10.3438 13.0479 10.3498 13.0448 10.3529L14.459 11.7671C14.8832 11.3429 15.0393 10.826 15.106 10.3293C15.169 9.86142 15.1668 9.28115 15.1668 8.6416H13.1668ZM13.1668 5.09993V8.6416H15.1668V5.09993H13.1668ZM13.0448 3.38864C13.0479 3.39176 13.0549 3.39771 13.067 3.42711C13.0824 3.46449 13.105 3.53862 13.1239 3.67871C13.1647 3.98237 13.1668 4.40384 13.1668 5.09993H15.1668C15.1668 4.46038 15.169 3.88012 15.106 3.41222C15.0393 2.91555 14.8832 2.39866 14.459 1.97443L13.0448 3.38864ZM11.3335 3.2666C12.0296 3.2666 12.4511 3.26873 12.7547 3.30955C12.8948 3.32839 12.9689 3.35106 13.0063 3.36644C13.0357 3.37854 13.0417 3.38552 13.0448 3.38864L14.459 1.97443C14.0348 1.55019 13.5179 1.39416 13.0212 1.32739C12.5533 1.26448 11.9731 1.2666 11.3335 1.2666V3.2666ZM5.66683 3.2666H11.3335V1.2666H5.66683V3.2666ZM3.95554 3.38864C3.95866 3.38552 3.9646 3.37854 3.994 3.36644C4.03138 3.35106 4.10552 3.32839 4.24561 3.30955C4.54927 3.26873 4.97074 3.2666 5.66683 3.2666V1.2666C5.02728 1.2666 4.44701 1.26448 3.97911 1.32739C3.48245 1.39416 2.96556 1.55019 2.54132 1.97443L3.95554 3.38864ZM3.8335 5.09993C3.8335 4.40384 3.83562 3.98237 3.87645 3.67871C3.89528 3.53862 3.91796 3.46449 3.93334 3.42711C3.94543 3.39771 3.95241 3.39176 3.95554 3.38864L2.54132 1.97443C2.11709 2.39866 1.96105 2.91555 1.89428 3.41222C1.83137 3.88012 1.8335 4.46038 1.8335 5.09993H3.8335ZM3.8335 13.2458V5.09993H1.8335V13.2458H3.8335ZM4.60433 10.4749C3.07404 10.4749 1.8335 11.7155 1.8335 13.2458H3.8335C3.8335 12.82 4.17861 12.4749 4.60433 12.4749V10.4749ZM5.37516 5.80827C5.37516 5.25598 5.82288 4.80827 6.37516 4.80827L6.37516 2.80827C4.71831 2.80827 3.37516 4.15141 3.37516 5.80827H5.37516ZM6.37516 6.80827C5.82288 6.80827 5.37516 6.36055 5.37516 5.80827H3.37516C3.37516 7.46512 4.71831 8.80827 6.37516 8.80827L6.37516 6.80827ZM10.6252 6.80827L6.37516 6.80827L6.37516 8.80827L10.6252 8.80827L10.6252 6.80827ZM11.6252 5.80827C11.6252 6.36055 11.1774 6.80827 10.6252 6.80827L10.6252 8.80827C12.282 8.80827 13.6252 7.46512 13.6252 5.80827H11.6252ZM10.6252 4.80827C11.1774 4.80827 11.6252 5.25598 11.6252 5.80827H13.6252C13.6252 4.15141 12.282 2.80827 10.6252 2.80827L10.6252 4.80827ZM6.37516 4.80827L10.6252 4.80827L10.6252 2.80827L6.37516 2.80827L6.37516 4.80827ZM7.79183 14.0166H4.60433V16.0166H7.79183V14.0166ZM1.8335 13.2458C1.8335 14.7761 3.07404 16.0166 4.60433 16.0166V14.0166C4.17861 14.0166 3.8335 13.6715 3.8335 13.2458H1.8335Z" fill="#9D9FA2"/>
<path d="M14.7332 15.0166H7.6499" stroke="#9D9FA2" stroke-width="2" stroke-linecap="round"/>
</svg>
