<svg width="18" height="18" viewBox="0 0 18 18" fill="none" xmlns="http://www.w3.org/2000/svg">
<g clip-path="url(#clip0_146_1672)">
<path d="M9.19298 9.02559C10.1856 9.02559 11.0452 8.66957 11.7475 7.96713C12.4499 7.26481 12.8059 6.40548 12.8059 5.41271C12.8059 4.42028 12.4499 3.56083 11.7474 2.85828C11.045 2.15607 10.1855 1.80005 9.19298 1.80005C8.2002 1.80005 7.34087 2.15607 6.63854 2.85839C5.93622 3.56072 5.58008 4.42016 5.58008 5.41271C5.58008 6.40548 5.93622 7.26492 6.63866 7.96725C7.3411 8.66945 8.20055 9.02559 9.19298 9.02559V9.02559Z" fill="#9D9FA2"/>
<path d="M15.5145 13.3343C15.4943 13.042 15.4533 12.7232 15.393 12.3865C15.3321 12.0473 15.2537 11.7267 15.1599 11.4336C15.0629 11.1306 14.9311 10.8315 14.7681 10.5448C14.599 10.2473 14.4003 9.98819 14.1774 9.77498C13.9443 9.55194 13.6589 9.37261 13.3288 9.24181C12.9999 9.11169 12.6354 9.04577 12.2455 9.04577C12.0924 9.04577 11.9443 9.1086 11.6583 9.29479C11.4823 9.40957 11.2764 9.54233 11.0466 9.68915C10.8501 9.81435 10.5839 9.93165 10.2552 10.0379C9.93438 10.1417 9.60868 10.1943 9.28722 10.1943C8.96575 10.1943 8.64017 10.1417 8.31905 10.0379C7.9906 9.93177 7.72441 9.81447 7.52815 9.68927C7.30052 9.54381 7.09453 9.41106 6.91589 9.29468C6.63024 9.10848 6.48204 9.04565 6.32892 9.04565C5.9389 9.04565 5.57452 9.11169 5.24574 9.24192C4.91592 9.3725 4.63039 9.55182 4.39704 9.7751C4.17422 9.98841 3.97544 10.2474 3.80653 10.5448C3.64368 10.8315 3.51184 11.1305 3.41479 11.4337C3.32107 11.7268 3.24268 12.0473 3.18179 12.3865C3.12148 12.7227 3.08051 13.0417 3.06026 13.3347C3.04034 13.6217 3.03027 13.9196 3.03027 14.2204C3.03027 15.0034 3.27918 15.6373 3.77002 16.1048C4.25479 16.5661 4.89623 16.8001 5.67626 16.8001H12.8989C13.6789 16.8001 14.3201 16.5662 14.805 16.1048C15.2959 15.6377 15.5448 15.0037 15.5448 14.2203C15.5447 13.9181 15.5345 13.62 15.5145 13.3343V13.3343Z" fill="#9D9FA2"/>
</g>
<defs>
<clipPath id="clip0_146_1672">
<rect width="15" height="15" fill="white" transform="translate(1.7998 1.80005)"/>
</clipPath>
</defs>
</svg>
