<svg width="18" height="18" viewBox="0 0 18 18" fill="none" xmlns="http://www.w3.org/2000/svg">
<path d="M9.75 6C9.75 6.41421 9.41421 6.75 9 6.75C8.58579 6.75 8.25 6.41421 8.25 6C8.25 5.58579 8.58579 5.25 9 5.25C9.41421 5.25 9.75 5.58579 9.75 6Z" fill="#9D9FA2"/>
<path d="M9 8.25C9.41421 8.25 9.75 8.58579 9.75 9V11.25C9.75 11.6642 9.41421 12 9 12C8.58579 12 8.25 11.6642 8.25 11.25V9C8.25 8.58579 8.58579 8.25 9 8.25Z" fill="#9D9FA2"/>
<path fill-rule="evenodd" clip-rule="evenodd" d="M9 1.5C5.68629 1.5 3 4.18629 3 7.5C3 9.42214 3.98709 11.3038 5.05103 12.7919C6.1292 14.2999 7.36716 15.5146 8.02815 16.1212C8.58077 16.6283 9.41923 16.6283 9.97185 16.1212C10.6328 15.5146 11.8708 14.2999 12.949 12.7919C14.0129 11.3038 15 9.42214 15 7.5C15 4.18629 12.3137 1.5 9 1.5ZM4.5 7.5C4.5 5.01472 6.51472 3 9 3C11.4853 3 13.5 5.01472 13.5 7.5C13.5 8.94653 12.7364 10.5101 11.7288 11.9195C10.7574 13.2782 9.63188 14.3937 9 14.977C8.36812 14.3937 7.24263 13.2782 6.27125 11.9195C5.26355 10.5101 4.5 8.94653 4.5 7.5Z" fill="#9D9FA2"/>
</svg>
