<svg width="50" height="50" viewBox="0 0 50 50" fill="none" xmlns="http://www.w3.org/2000/svg">
<rect width="50" height="50" rx="25" fill="#DFDFDF"/>
<g clip-path="url(#clip0_146_1597)">
<path d="M25.3223 25.0426C26.9767 25.0426 28.4093 24.4492 29.5799 23.2785C30.7504 22.1079 31.3438 20.6757 31.3438 19.0211C31.3438 17.367 30.7504 15.9346 29.5797 14.7637C28.4089 13.5934 26.9765 13 25.3223 13C23.6677 13 22.2354 13.5934 21.0649 14.7639C19.8943 15.9344 19.3008 17.3669 19.3008 19.0211C19.3008 20.6757 19.8943 22.1081 21.0651 23.2787C22.2358 24.449 23.6682 25.0426 25.3223 25.0426Z" fill="white"/>
<path d="M35.8579 32.2237C35.8241 31.7366 35.7558 31.2052 35.6553 30.644C35.5538 30.0787 35.4232 29.5443 35.2668 29.0558C35.1052 28.5509 34.8855 28.0523 34.6139 27.5745C34.332 27.0786 34.0009 26.6468 33.6293 26.2915C33.2408 25.9197 32.7651 25.6209 32.215 25.4028C31.6668 25.186 31.0593 25.0761 30.4095 25.0761C30.1543 25.0761 29.9075 25.1808 29.4309 25.4912C29.1375 25.6825 28.7944 25.9037 28.4114 26.1484C28.0839 26.3571 27.6402 26.5526 27.0923 26.7296C26.5576 26.9026 26.0148 26.9903 25.479 26.9903C24.9432 26.9903 24.4006 26.9026 23.8654 26.7296C23.318 26.5528 22.8743 26.3573 22.5472 26.1486C22.1679 25.9062 21.8245 25.6849 21.5268 25.491C21.0507 25.1806 20.8037 25.0759 20.5485 25.0759C19.8985 25.0759 19.2912 25.186 18.7432 25.403C18.1935 25.6207 17.7176 25.9195 17.3287 26.2917C16.9574 26.6472 16.6261 27.0788 16.3445 27.5745C16.0731 28.0523 15.8534 28.5507 15.6917 29.056C15.5354 29.5444 15.4048 30.0787 15.3033 30.644C15.2028 31.2044 15.1345 31.736 15.1008 32.2243C15.0676 32.7026 15.0508 33.1991 15.0508 33.7005C15.0508 35.0055 15.4656 36.062 16.2837 36.8412C17.0916 37.61 18.1607 38.0001 19.4608 38.0001H31.4984C32.7985 38.0001 33.8672 37.6102 34.6753 36.8412C35.4936 36.0626 35.9084 35.0059 35.9084 33.7003C35.9082 33.1966 35.8912 32.6998 35.8579 32.2237Z" fill="white"/>
</g>
<defs>
<clipPath id="clip0_146_1597">
<rect width="25" height="25" fill="white" transform="translate(13 13)"/>
</clipPath>
</defs>
</svg>
